<svg xmlns="http://www.w3.org/2000/svg" data-name="Layer 1" viewBox="0 0 194.7 123.84"><path d="M200.4 53.7A35.48 35.48 0 0 0 172 87.1c-.1 3.3 0 6.6 0 9.9a16 16 0 0 1-.5 4.4 17.53 17.53 0 0 1-19.9 13.3 17.74 17.74 0 0 1-14.7-14.4c-.3-2.1-.3-7.5-.3-7.5h-17.8a71 71 0 0 1-.2 7.5 17.66 17.66 0 0 1-34.6.8 29.8 29.8 0 0 1-.4-6.7 74 74 0 0 0-.3-10.5 34.26 34.26 0 0 0-12.4-22.7 34.73 34.73 0 0 0-23.2-8.4H31.4a1.3 1.3 0 0 1-1-.2v-44H12.7v89.5a25.6 25.6 0 0 0 .7 6.2 35.24 35.24 0 0 0 33.1 28.1 34.6 34.6 0 0 0 24.1-8.1 48 48 0 0 0 4-3.8c7.2 7.8 16 11.9 26.6 11.9s19.2-4.1 26.3-11.7l.3-.3a2.7 2.7 0 0 1 .4.5c8.5 8.9 19 12.7 31.2 11.1a33.08 33.08 0 0 0 20.1-10.2 34.76 34.76 0 0 0 10.2-25.5c0-3-.1-5.9 0-8.9a17.48 17.48 0 0 1 13.4-16.5c1.4-.3 4.3-.6 4.3-.6V52.6c-.1 0-4.7.7-7 1.1M65.8 97.3a17.64 17.64 0 0 1-35.1 2.6 26 26 0 0 1-.2-2.9V70.7H48a17.67 17.67 0 0 1 17.4 14.1 14.7 14.7 0 0 1 .4 3.6Z" style="fill:#fff" transform="translate(-12.7 -8.6)"/></svg>